<svg id="Layer_1" data-name="Layer 1" xmlns="http://www.w3.org/2000/svg" viewBox="0 0 313 326"><defs><style>.cls-1{fill:#f25531;}.cls-2{fill:#d6412a;}.cls-3{fill:#e9cea6;}.cls-4{fill:#e8cea7;}.cls-5{fill:#f6e3bd;}.cls-6{fill:none;stroke:#658591;stroke-miterlimit:10;stroke-width:8.5px;}.cls-7{fill:#f6e4bd;}.cls-8{fill:#e2482e;}.cls-9{fill:#c3252c;}.cls-10{fill:#6494a0;}.cls-11{fill:#63919d;}.cls-12{fill:#ebd8b4;}.cls-13{fill:#e9c6a3;}.cls-14{fill:#d7412a;}.cls-15{fill:#321f20;}.cls-16{fill:#2f1e1f;}.cls-17{fill:#f6e5bc;}.cls-18{fill:#311f21;}</style></defs><title>cat-space</title><path class="cls-1" d="M133.86,270c-3.56-4-6.49-8.62-11-11.74-10-10-15.62-22.45-20.18-35.54-5.6-14.12-7.32-28.94-7.81-43.94-.24-7.47.27-15,4-21.78,4.89-26.77,16.26-50.29,35.16-70,2.16-2.26,4.61-4.25,6.93-6.37,2.72,1.56,2.69,4.43,3.09,7,4.17,26.69,22.83,46.92,49.15,53.41,3.07.76,6.85.27,8.76,3.83,5.45,12.86,7.84,26.53,10.57,40.11a3.49,3.49,0,0,1-.55,2.83c-.44,4.88,1.77,9.24,2.76,13.83,3.14,14.55,2,28.43-5.82,41.41-.33,7.89-9.11,17.23-16.84,17.91a38.74,38.74,0,0,1-11.88,6.11c-4.1,1.29-8.3,2.26-12.83,3.47,3,4.86,8,8,11.43,12.5a3.78,3.78,0,0,1-.86,3.25,111.13,111.13,0,0,1-11.16,11.22,5,5,0,0,1-3.73,1Z"/><path class="cls-2" d="M192,260.95A47.38,47.38,0,0,0,208.87,243c.12,2.29,2,3.35,3.36,4.75Q221.1,256.91,230,266a4,4,0,0,1-1,3.24c-4.71,4.29-7.92,10.3-14.37,12.59q-9.11-9-18.23-18C195.13,262.62,194.14,260.92,192,260.95Z"/><path class="cls-2" d="M211.93,187.79c-2.37-2.16-1.79-5.25-2.46-7.93-2.89-11.63-5.68-23.28-8.51-34.92a1.35,1.35,0,0,1,1.9.13q13.06,14,27.08,27.05,0,.42,0,.83a3.91,3.91,0,0,1-1,3.25c-4.7,4.31-7.91,10.31-14.37,12.6Z"/><path class="cls-3" d="M214.61,188.81,230,173c2.74,2.62,5.7,5.06,8.18,7.91a10.89,10.89,0,0,1-.56,15.29,11.19,11.19,0,0,1-15.34.46C219.54,194.21,217.15,191.42,214.61,188.81Z"/><path class="cls-4" d="M214.61,281.81,230,266c2.62,2.5,5.42,4.85,7.84,7.55,4.35,4.85,4.13,11.33-.27,15.65a11.28,11.28,0,0,1-15.71.11C219.32,286.95,217,284.31,214.61,281.81Z"/><path class="cls-5" d="M163,298.49,178.74,283c2.63,2.53,5.41,4.91,7.85,7.61a11,11,0,0,1-.31,15.68,11.15,11.15,0,0,1-15.71,0C167.89,303.9,165.51,301.12,163,298.49Z"/><path class="cls-2" d="M104.84,222.77a131.62,131.62,0,0,0,14.95,29.46c1.28,1.87,3.05,3.54,3.07,6.07-14.62-9.79-30.23-17.23-47.65-20.59a121.5,121.5,0,0,0-51.85,1c-2.74.65-5.47,1.43-8.34,1.19-6.62-3.14-9.38-7-8.89-12.29.5-5.55,4.11-8.86,11.39-10.69,8.06-2,16.29-3,24.51-4,20-5.25,39,.05,57.85,5.83C102.1,219.46,102.93,221.77,104.84,222.77Z"/><path class="cls-6" d="M202.87,145.07l-1.9-.13c-10-1.89-19.77-4.4-28.44-10-19.65-12.77-29.86-31-31.62-54.25.31-25.7,10.56-46.12,32.81-59.52,18.87-11.37,38.9-12.27,59.39-4.41,1.24.47,2.49.9,3.74,1.35,13.3,7.31,24,17.19,30.73,31C289,92.9,257.12,144.55,208.35,145,206.53,145,204.7,145,202.87,145.07Z"/><path class="cls-7" d="M163.23,205.1C167.52,201,172,197,176,192.62c2.34-2.51,3.92-2.33,5.86.15a35.2,35.2,0,0,0,2.79,2.84c7.27,7.38,6.7,14.09-1.71,20.28-2.87,3.37-6.29,3.13-9.86,1.41-4-1.92-6.78-5.2-9.5-8.52A2.93,2.93,0,0,1,163.23,205.1Z"/><path class="cls-2" d="M163.23,205.1c5,6.47,9.69,13.54,19.74,10.79-3.39,8-12,10.16-17.54,3.84-6.24-7.06-11.59-14.92-17.26-22.47-3.78-5-7.46-10.16-11.18-15.25q-.4-1.41,1-1C146.46,189,153.86,198.07,163.23,205.1Z"/><path class="cls-8" d="M138,181l-1,1c-1.76-1.11-2.61-2.89-4-5.56A11.49,11.49,0,0,1,138,181Z"/><path class="cls-1" d="M146.24,75.42,153,71c2.26,1.4,2,3.63,1.91,5.79a52.67,52.67,0,0,0,35.35,51.48c2.84,1,6.46,1,7.73,4.71l1.17,6.24c-24.48-1.88-47.35-23.55-52.13-49.39A45.24,45.24,0,0,1,146.24,75.42Z"/><path class="cls-1" d="M158.84,66.85c9.36-3.65,13.61-11.25,15.84-20.43a23.55,23.55,0,0,1,1-2.8c2.26-5.88,4.58-6.4,9.35-2.08,2.45,2.22,5.06,4.3,7.31,6.71A5.52,5.52,0,0,0,199,49.87c7.35,1.64,12.43-2,17.38-6.86,6.8-6.72,8.16-6.15,11.62,2.91S234.38,64,239,72.5c4.86,9,4.87,18.77,2,28.54-.94,1.88-2.7,1.36-4.25,1.47,1.28,0,2.49.16,3,1.59l-1.73,3.81c.36,1.84-3.66.59-2.25,3.18-8.2,11.72-19.63,17.06-33.75,17.11-8.89,3.48-16-1.55-22.62-5.76-13.34-8.49-21.5-20.84-23.65-36.8-.44-3.28-1.16-6.53-.8-9.87S156.24,69.25,158.84,66.85Z"/><path class="cls-9" d="M158.84,66.85c-7.36,28.78,13.68,58.63,43.24,61.34A8.34,8.34,0,0,0,198,133c-13.46-3.33-25.2-9.5-33.79-20.72C154.83,100,151.27,86.2,153,71A15.8,15.8,0,0,1,158.84,66.85Z"/><path class="cls-10" d="M221,32.12a35.84,35.84,0,0,0-10.75-2c-1.62-.11-2.42-.71-2.43-2.41,0-2,1.09-2.56,2.87-2.46,5.19.28,10.14,1.77,15.17,2.87,8.06,3.66,15.65,8,21.42,14.92,1.06,1.26,3.85,2.44,1.61,4.82-2.47,2.63-3.67,0-5-1.48C237.52,39.51,230.2,34.3,221,32.12Z"/><path class="cls-11" d="M260.29,71.57c.29,1.34.1,2.42-1.72,2.74s-2.67-.43-3-2.26a47.8,47.8,0,0,0-3.43-12.38c-.76-1.67-.45-2.79,1.32-3.51,2-.8,2.72.4,3.31,1.89A47.17,47.17,0,0,1,260.29,71.57Z"/><path class="cls-12" d="M239.81,104.1c-2.12-.05-4.26,0-6.37-.2-1.47-.15-4.13.89-4.12-1.16,0-2.56,2.81-1.26,4.37-1.44,2.42-.28,4.89-.19,7.34-.26.91.28,2.12.4,1.92,1.71C242.65,104.71,240.82,103.53,239.81,104.1Z"/><path class="cls-13" d="M235.83,111.09c-2.19-.79-6.5,1-6.37-1.45.16-3,4.32-1,6.66-1.54a13.35,13.35,0,0,1,2-.19,14.06,14.06,0,0,1,1.45.22c1.24.31,3.53-.76,3.35,1.54-.16,2.07-2.34,1-3.64,1.2A32,32,0,0,1,235.83,111.09Z"/><path class="cls-2" d="M225.37,56.71c-2.4-1.65-6.93,1-7.79-2.73s2.21-6.76,4.15-9.78c1-1.62,2.76-1.18,3.51.56a70.6,70.6,0,0,1,3.32,8.84C229.26,56.06,227.63,56.79,225.37,56.71Z"/><path class="cls-14" d="M181,50.77c0-1.08,0-1.92,0-2.75.09-1.28-.33-2.88,1.22-3.51s2.42.7,3.38,1.58,1.67,1.63,2.5,2.45c5.68,5.65,5.61,5.92-2.18,8.34-4.56,1.42-5.33.84-5.11-3.87C180.84,52.18,180.93,51.36,181,50.77Z"/><path class="cls-15" d="M207.73,84.1c-.46,2.66-1.89,4.37-4.64,4.27s-4.28-1.63-4.2-4.46,1.77-4.23,4.46-4.19S207.44,81.52,207.73,84.1Z"/><path class="cls-16" d="M230.32,84.1c-.25,2.89-1.82,4.4-4.59,4.23s-4.2-1.95-4-4.7a3.87,3.87,0,0,1,4.31-3.9C228.88,79.77,230.21,81.43,230.32,84.1Z"/><path class="cls-7" d="M188.16,102.75a18.49,18.49,0,0,1,13.61-.09C197.29,104.26,192.77,104,188.16,102.75Z"/><path class="cls-17" d="M195.18,108.09c2.16.76,6.23-.89,6.12,1.23-.14,2.88-4,1.34-6.2,1.37s-6.72,1.08-6.55-.95C188.81,106.65,192.93,109.07,195.18,108.09Z"/><path class="cls-15" d="M215.4,96.88c1.9.37,4.43.16,4.19,2.62a4.46,4.46,0,0,1-4.17,3.68c-1.78-.08-4-1.86-4.07-3.82C211.27,97.06,213.81,97.25,215.4,96.88Z"/><path class="cls-18" d="M216,109.13c1.12.2.9,1.31.91,2.25s-.44,1.63-1.44,1.56c-1.69-.11-1.51-1.41-1.42-2.55S214.8,109,216,109.13Z"/></svg>