<svg id="Layer_1" data-name="Layer 1" xmlns="http://www.w3.org/2000/svg" viewBox="0 0 444 444"><defs><style>.cls-1{fill:#fff;}</style></defs><title>cattails</title><path class="cls-1" d="M239.4,11.05A198,198,0,0,0,133,41.9c-4.23,2.57-8.18,5.28-11.47,7.77q-1.43,1.08-2.82,2.19l-.76.58v0c-8,6.47-14.9,13.38-19.54,19.74-6.8,9.31-8.3,16.6-4.46,21.68,2.15,2.85,5.43,4.28,9.81,4.28A36.5,36.5,0,0,0,116,95.55c8.47-3.12,18.42-8.83,28-16.07.68-.51,1.34-1,2-1.55a158.81,158.81,0,0,1,92.37-29.52c88.12,0,159.81,71.69,159.81,159.81,0,84-65.17,153.06-147.62,159.32a58.87,58.87,0,0,0,.58-21.67c-2.31-12.74-10.35-22-21.83-27.51q-1.29-.62-2.58-1.21c-2.13-13.34-9.17-28-22.75-32.79-6.18-2.18-13.42-1.38-17.8,3.85a14.42,14.42,0,0,0-3.2,8,173.63,173.63,0,0,1-24-18.81,178.15,178.15,0,0,1-12.8-13.3,5.46,5.46,0,0,0,.55-1.56c3.28-16.93,12.32-44.49-3.26-58.09a17.58,17.58,0,0,0-23.54-.12,25.7,25.7,0,0,0-5.3,6.79c-.13-.34-.27-.69-.39-1a5.78,5.78,0,0,0-.78-1.47A44.53,44.53,0,0,0,121.75,183a43.74,43.74,0,0,0-4-18.32,57,57,0,0,0,6.41-11.58,54.16,54.16,0,0,0,3.56-13.29c.57-4.15,1.45-9.34-.87-13.08-1.38-2.23-3.57-2.78-6-2.44a62.13,62.13,0,0,0-31.5,14.16,59.66,59.66,0,0,0-5.7-2l7.11-9.54c1.91-2.56-2.4-5-4.28-2.5L79,134.4a46.75,46.75,0,0,0,1.65-6.7c.53-3.12-4.25-4.46-4.78-1.32a46.73,46.73,0,0,1-2.13,8,62.45,62.45,0,0,0-15.24,0,46.73,46.73,0,0,1-2.14-8.08c-.53-3.14-5.31-1.81-4.78,1.32a46.75,46.75,0,0,0,1.65,6.7l-7.46-10c-1.89-2.53-6.19-.06-4.28,2.5l7.17,9.62c-.84.25-1.67.51-2.49.79a55.29,55.29,0,0,0-11.67-9.05c-6.91-4-18.61-9.44-26.48-6a5.21,5.21,0,0,0-2.63,4.59A64,64,0,0,0,16,162.2,44,44,0,0,0,10.75,183a45.34,45.34,0,0,0,12.37,30.77c-10.28,38.14-3.64,78.81,12.46,114.39s42.71,68.2,76.82,87.88c31.8,18.35,71.19,23.61,104.79,6.62a46.75,46.75,0,0,0,15.5-13.26c2.23.08,4.46.13,6.71.13,109.86,0,199.23-89.37,199.23-199.23S349.25,11.05,239.4,11.05ZM195.08,294.41c3.25-2.23,8.47,1.17,10.86,3.24,4.39,3.8,7.08,8.93,8.77,14.4A212.07,212.07,0,0,1,194,302.82C193.28,299.83,192.71,296,195.08,294.41Zm-68.73-81.5c5.51-5.56,11.79-.5,13.69,5.54,3.46,11,.31,23.76-2.26,35.24a172.61,172.61,0,0,1-17.1-28.29C121.63,220.74,123.54,215.74,126.35,212.91ZM239.87,398.17l.1-.18a30.56,30.56,0,0,1-10.33-1.18,8,8,0,0,1-1.1-.46,71.91,71.91,0,0,1-6.27,8.54c-10.79,12.53-29.92,16.84-45.83,17.53-16.71.73-33.39-3.14-48.48-10.24-33.06-15.55-59.13-44-76.42-75.78C31.77,300.11,22.47,256.5,33.5,216c.17-.39.35-.77.54-1.16a7.21,7.21,0,0,1,.74-1.87C25.25,205.6,19.25,194.88,19.25,183a35.26,35.26,0,0,1,2.59-13.22c.82.91,1.67,1.81,2.55,2.68,4.87,4.82,12.39-2.7,7.52-7.52A53.09,53.09,0,0,1,16.3,132.45c.31.07.61.12.92.19,1.46.36,2.9.78,4.32,1.26A44.7,44.7,0,0,1,31,138.59a45,45,0,0,1,14.54,15.26c3.47,5.89,12.66.55,9.18-5.37-.83-1.41-1.75-2.77-2.69-4.11a53.77,53.77,0,0,1,30.46.62q-2,2.28-3.89,4.75c-4.1,5.48,5.13,10.79,9.18,5.37a52.7,52.7,0,0,1,29.67-19.39c0,.09,0,.18,0,.28a40.21,40.21,0,0,1-.65,4.72,45.63,45.63,0,0,1-3.39,10.46,47,47,0,0,1-13.6,16.89c-5.36,4.25,2.21,11.73,7.52,7.52a53.76,53.76,0,0,0,4.1-3.65,35.12,35.12,0,0,1,1.8,11,36.85,36.85,0,0,1-9.67,24.57A8,8,0,0,0,104,213a186,186,0,0,0,87.68,100.69c10.23,5.36,21.18,8.71,31.61,13.57,10.86,5.05,17.63,13.31,18,25.63a73,73,0,0,1-4.39,26,32.69,32.69,0,0,1,3.87-.28c-.07.26-.13.52-.2.77,93.37-1.18,169-77.48,169-171.12,0-94.37-76.78-171.15-171.15-171.15A170,170,0,0,0,147,63.63l-.21.06-.07.11q-3.07,2-6,4l-.36.17-.84.67q-3,2.14-5.91,4.41C118.1,84,106.82,87.17,103.31,86.84c.65-3.51,6.94-13.72,22.12-25.81h0a186.88,186.88,0,0,1,114-38.63c103.6,0,187.89,84.29,187.89,187.89C427.29,313.73,343.26,397.91,239.87,398.17Z"/></svg>